<svg xmlns="http://www.w3.org/2000/svg" viewBox="0 0 699 631.02"><title>firework</title><g id="图层_2" data-name="图层 2"><g id="图层_1-2" data-name="图层 1"><path d="M172.77,294.92l-2.24,82.89a.08.08,0,0,1-.09.07.1.1,0,0,1-.1-.07l-2.24-82.89a2.12,2.12,0,0,1,2.29-1.9,2.16,2.16,0,0,1,2.38,1.82Z" style="fill:#f1d6ab"/><path d="M88.72,315.42l39.5,72.9a.08.08,0,0,1-.05.11.08.08,0,0,1-.11,0L84.68,317.75a2.1,2.1,0,0,1,1-2.78,2.17,2.17,0,0,1,3,.38A.25.25,0,0,0,88.72,315.42Z" style="fill:#f1d6ab"/><path d="M26.17,375.2l70.66,43.39a.07.07,0,0,1,0,.11c0,.05-.07.07-.11.05l-72.9-39.51a2.1,2.1,0,0,1-.5-2.92,2.15,2.15,0,0,1,2.76-1.16Z" style="fill:#f1d6ab"/><path d="M1.9,458.25l82.89,2.24a.09.09,0,0,1,0,.18L1.9,462.91A2.1,2.1,0,0,1,0,460.63a2.16,2.16,0,0,1,1.82-2.38Z" style="fill:#f1d6ab"/><path d="M22.4,542.3l72.9-39.5a.08.08,0,0,1,.11.05.08.08,0,0,1,0,.11L24.73,546.34a2.1,2.1,0,0,1-2.78-1,2.17,2.17,0,0,1,.38-3Z" style="fill:#f1d6ab"/><path d="M82.18,604.85l43.39-70.67a.09.09,0,0,1,.12,0,.08.08,0,0,1,0,.11l-39.5,72.9a2.11,2.11,0,0,1-2.93.5,2.15,2.15,0,0,1-1.16-2.76Z" style="fill:#f1d6ab"/><path d="M165.23,629.12l2.24-82.89a.08.08,0,0,1,.09-.07.1.1,0,0,1,.1.07l2.23,82.89a2.1,2.1,0,0,1-2.28,1.9,2.16,2.16,0,0,1-2.38-1.82Z" style="fill:#f1d6ab"/><path d="M249.28,608.62l-39.5-72.9a.09.09,0,0,1,.05-.12.09.09,0,0,1,.11,0l43.38,70.66a2.11,2.11,0,0,1-1,2.79,2.18,2.18,0,0,1-3-.38A.25.25,0,0,0,249.28,608.62Z" style="fill:#f1d6ab"/><path d="M311.83,548.84l-70.67-43.39a.1.1,0,0,1,.1-.16l72.9,39.5a2.11,2.11,0,0,1,.5,2.93,2.16,2.16,0,0,1-2.76,1.16Z" style="fill:#f1d6ab"/><path d="M336.1,465.79l-82.89-2.24a.08.08,0,0,1-.07-.09c0-.06,0-.1.07-.1l82.89-2.24a2.12,2.12,0,0,1,1.9,2.29,2.16,2.16,0,0,1-1.82,2.38Z" style="fill:#f1d6ab"/><path d="M315.6,381.74l-72.9,39.5a.08.08,0,0,1-.11-.05.08.08,0,0,1,0-.11l70.67-43.39a2.12,2.12,0,0,1,2.78,1,2.17,2.17,0,0,1-.38,3Z" style="fill:#f1d6ab"/><path d="M255.82,319.19l-43.39,70.66a.08.08,0,0,1-.12,0,.09.09,0,0,1,0-.11l39.5-72.9a2.11,2.11,0,0,1,2.93-.5,2.15,2.15,0,0,1,1.16,2.76A.25.25,0,0,0,255.82,319.19Z" style="fill:#f1d6ab"/><path d="M142.09,348.69l12.78,56.37s0,.06-.08.07-.09,0-.1,0L137.58,349.9c-.21-.68.62-1.52,1.86-1.87s2.42-.07,2.63.61C142.08,348.66,142.08,348.68,142.09,348.69Z" style="fill:#f1d6ab"/><path d="M89,377.33l39.25,42.42s0,.07,0,.11a.11.11,0,0,1-.1,0L85.73,380.63c-.52-.48-.22-1.63.68-2.55s2.06-1.27,2.58-.79Z" style="fill:#f1d6ab"/><path d="M57.4,428.66l55.21,17.11s0,.06,0,.11,0,.08-.07.07L56.19,433.17c-.69-.16-1-1.3-.68-2.55s1.14-2.13,1.84-2Z" style="fill:#f1d6ab"/><path d="M55.67,488.93,112,476.15s.06,0,.07.08a.08.08,0,0,1,0,.1L56.88,493.44c-.68.21-1.52-.62-1.87-1.86s-.07-2.42.61-2.63Z" style="fill:#f1d6ab"/><path d="M84.31,542l42.42-39.26a.11.11,0,0,1,.11,0s0,.08,0,.1L87.61,545.29c-.48.52-1.62.22-2.55-.68s-1.27-2.06-.79-2.58Z" style="fill:#f1d6ab"/><path d="M135.64,573.62l17.11-55.21a.09.09,0,0,1,.11,0s.08,0,.08.07l-12.79,56.37c-.16.69-1.3,1-2.55.68s-2.13-1.14-2-1.84A.43.43,0,0,1,135.64,573.62Z" style="fill:#f1d6ab"/><path d="M195.91,575.34,183.13,519s0-.06.08-.07a.08.08,0,0,1,.1,0l17.11,55.21c.21.68-.62,1.52-1.86,1.87s-2.42.07-2.63-.61Z" style="fill:#f1d6ab"/><path d="M249,546.71l-39.25-42.43s0-.06,0-.1.08-.05.1,0l42.42,39.26c.52.48.22,1.62-.68,2.55s-2.06,1.27-2.58.78Z" style="fill:#f1d6ab"/><path d="M280.6,495.37l-55.21-17.11s0-.05,0-.1a.1.1,0,0,1,.07-.08l56.37,12.79c.69.16,1,1.3.68,2.55s-1.14,2.13-1.84,2Z" style="fill:#f1d6ab"/><path d="M282.33,435.11,226,447.89s-.06,0-.07-.08a.08.08,0,0,1,0-.1l55.21-17.11c.68-.21,1.52.62,1.87,1.86s.07,2.42-.61,2.63Z" style="fill:#f1d6ab"/><path d="M253.69,382.05,211.27,421.3s-.07,0-.11,0,0-.08,0-.1l39.26-42.42c.48-.53,1.62-.22,2.55.68s1.27,2.05.79,2.58Z" style="fill:#f1d6ab"/><path d="M202.36,350.42l-17.11,55.21s-.06,0-.11,0a.1.1,0,0,1-.08-.07l12.79-56.37c.16-.7,1.3-1,2.55-.68s2.13,1.14,2,1.84A.43.43,0,0,0,202.36,350.42Z" style="fill:#f1d6ab"/><path d="M587.54,139.3,586,195.21a.06.06,0,0,1-.06,0s-.06,0-.06,0L584.4,139.3a1.42,1.42,0,0,1,1.54-1.28,1.44,1.44,0,0,1,1.6,1.23Z" style="fill:#f1d6ab"/><path d="M530.84,153.13l26.65,49.18a.06.06,0,0,1,0,.07.06.06,0,0,1-.08,0L528.12,154.7a1.43,1.43,0,0,1,.69-1.88,1.47,1.47,0,0,1,2,.26Z" style="fill:#f1d6ab"/><path d="M488.66,193.46l47.66,29.26a.06.06,0,0,1,0,.08.06.06,0,0,1-.07,0l-49.18-26.65a1.42,1.42,0,0,1-.34-2,1.46,1.46,0,0,1,1.87-.78Z" style="fill:#f1d6ab"/><path d="M472.28,249.47,528.19,251a.06.06,0,0,1,0,.12l-55.91,1.51a1.43,1.43,0,0,1-1.28-1.54,1.46,1.46,0,0,1,1.23-1.61Z" style="fill:#f1d6ab"/><path d="M486.11,306.17l49.18-26.64s.06,0,.07,0a.06.06,0,0,1,0,.08L487.68,308.9a1.42,1.42,0,0,1-1.87-.69,1.46,1.46,0,0,1,.25-2Z" style="fill:#f1d6ab"/><path d="M526.44,348.36,555.7,300.7a.05.05,0,0,1,.08,0,.06.06,0,0,1,0,.07l-26.65,49.18a1.42,1.42,0,0,1-2,.34,1.46,1.46,0,0,1-.78-1.87Z" style="fill:#f1d6ab"/><path d="M582.46,364.74,584,308.83a.06.06,0,0,1,.06-.05s.06,0,.06.05l1.51,55.91a1.43,1.43,0,0,1-1.54,1.28,1.45,1.45,0,0,1-1.6-1.23Z" style="fill:#f1d6ab"/><path d="M639.16,350.91l-26.65-49.18a.05.05,0,0,1,0-.07.06.06,0,0,1,.08,0l29.26,47.66a1.43,1.43,0,0,1-.69,1.88,1.45,1.45,0,0,1-2-.26Z" style="fill:#f1d6ab"/><path d="M681.34,310.58l-47.66-29.26a.06.06,0,0,1,0-.08.06.06,0,0,1,.07,0l49.18,26.65a1.42,1.42,0,0,1,.34,2,1.46,1.46,0,0,1-1.87.78Z" style="fill:#f1d6ab"/><path d="M697.72,254.56l-55.91-1.51a.06.06,0,0,1,0-.06s0-.06,0-.06l55.91-1.51A1.43,1.43,0,0,1,699,253a1.46,1.46,0,0,1-1.23,1.6Z" style="fill:#f1d6ab"/><path d="M683.89,197.86l-49.18,26.65a.05.05,0,0,1-.07,0,.06.06,0,0,1,0-.08l47.67-29.26a1.4,1.4,0,0,1,1.87.69,1.46,1.46,0,0,1-.25,2Z" style="fill:#f1d6ab"/><path d="M643.56,155.67,614.3,203.34a.06.06,0,0,1-.08,0,.06.06,0,0,1,0-.07l26.65-49.18a1.42,1.42,0,0,1,2-.34,1.46,1.46,0,0,1,.78,1.87Z" style="fill:#f1d6ab"/><path d="M566.85,175.57l8.62,38a.08.08,0,0,1-.05.05s-.07,0-.07,0l-11.54-37.24c-.15-.46.42-1,1.25-1.26s1.63,0,1.78.41Z" style="fill:#f1d6ab"/><path d="M531.06,194.89l26.47,28.62s0,0,0,.07,0,0-.06,0l-28.62-26.48c-.35-.33-.15-1.1.46-1.72s1.39-.86,1.74-.53Z" style="fill:#f1d6ab"/><path d="M509.72,229.52,547,241.06a.06.06,0,0,1,0,.07s0,.06-.05.05l-38-8.62c-.48-.11-.68-.88-.47-1.72s.77-1.44,1.24-1.33Z" style="fill:#f1d6ab"/><path d="M508.56,270.17l38-8.62s0,0,0,.05,0,.07,0,.07l-37.24,11.54c-.46.15-1-.42-1.26-1.25s-.05-1.63.41-1.78Z" style="fill:#f1d6ab"/><path d="M527.87,306l28.62-26.48s0,0,.07,0,0,.05,0,.06L530.1,308.19c-.33.35-1.1.15-1.72-.46s-.86-1.39-.53-1.74Z" style="fill:#f1d6ab"/><path d="M562.5,327.3,574,290.06a.06.06,0,0,1,.07,0s.06,0,0,0l-8.62,38c-.11.47-.88.68-1.72.47s-1.44-.77-1.33-1.25Z" style="fill:#f1d6ab"/><path d="M603.15,328.46l-8.62-38s0,0,.05-.05.07,0,.07,0l11.54,37.24c.15.46-.42,1-1.25,1.26s-1.63,0-1.78-.41Z" style="fill:#f1d6ab"/><path d="M638.94,309.14l-26.47-28.61s0,0,0-.07,0,0,.06,0l28.62,26.48c.35.33.15,1.1-.46,1.72s-1.39.86-1.74.53Z" style="fill:#f1d6ab"/><path d="M660.28,274.52,623,263a.06.06,0,0,1,0-.07s0-.06.05-.05l38,8.62c.48.11.68.88.47,1.72s-.77,1.44-1.24,1.33Z" style="fill:#f1d6ab"/><path d="M661.44,233.87l-38,8.62s0,0,0-.05,0-.07,0-.07l37.24-11.55c.46-.14,1,.42,1.26,1.26s.05,1.63-.41,1.78Z" style="fill:#f1d6ab"/><path d="M642.13,198.08l-28.62,26.47s0,0-.07,0a.07.07,0,0,1,0-.07l26.48-28.61c.33-.36,1.1-.15,1.72.46s.86,1.38.53,1.74Z" style="fill:#f1d6ab"/><path d="M607.5,176.74,596,214s0,0-.07,0-.06,0,0,0l8.62-38c.11-.47.88-.67,1.72-.46s1.44.77,1.33,1.24Z" style="fill:#f1d6ab"/><path d="M272.37.56l8.85,39a.07.07,0,0,1-.06.06s-.06,0-.07,0L269.25,1.4c-.15-.47.43-1,1.29-1.3s1.67,0,1.82.43Z" style="fill:#f1d6ab"/><path d="M235.64,20.39l27.17,29.37s0,0,0,.07-.06,0-.07,0L233.35,22.67c-.36-.33-.15-1.12.47-1.76s1.43-.88,1.79-.55Z" style="fill:#f1d6ab"/><path d="M213.74,55.93,252,67.77s0,0,0,.08a.05.05,0,0,1-.05.05l-39-8.85c-.48-.11-.69-.9-.47-1.77s.79-1.47,1.27-1.36Z" style="fill:#f1d6ab"/><path d="M212.54,97.65l39-8.85a.08.08,0,0,1,.05,0s0,.07,0,.08l-38.22,11.84c-.47.15-1-.43-1.29-1.29s-.06-1.67.42-1.82Z" style="fill:#f1d6ab"/><path d="M232.37,134.38l29.37-27.17s.05,0,.07,0a.05.05,0,0,1,0,.07l-27.17,29.37c-.34.36-1.13.15-1.77-.47s-.88-1.43-.55-1.79Z" style="fill:#f1d6ab"/><path d="M267.91,156.28l11.84-38.22s0,0,.08,0a.08.08,0,0,1,.05,0l-8.85,39c-.11.48-.9.69-1.77.47s-1.47-.79-1.36-1.27Z" style="fill:#f1d6ab"/><path d="M309.63,157.47l-8.85-39s0,0,.06,0a.06.06,0,0,1,.07,0l11.84,38.22c.15.47-.43,1.05-1.29,1.29s-1.67.06-1.82-.42Z" style="fill:#f1d6ab"/><path d="M346.36,137.65l-27.17-29.37s0,0,0-.07a.05.05,0,0,1,.07,0l29.37,27.17c.36.34.15,1.13-.47,1.77s-1.43.88-1.79.55Z" style="fill:#f1d6ab"/><path d="M368.26,102.11,330,90.27s0,0,0-.08a.07.07,0,0,1,.06,0l39,8.85c.48.11.69.9.47,1.76s-.79,1.48-1.27,1.37Z" style="fill:#f1d6ab"/><path d="M369.46,60.39l-39,8.85a.08.08,0,0,1-.05-.06.06.06,0,0,1,0-.07l38.22-11.84c.47-.15,1.05.43,1.29,1.29s.06,1.67-.42,1.82Z" style="fill:#f1d6ab"/><path d="M349.63,23.66,320.26,50.83s-.05,0-.07,0,0-.06,0-.07l27.17-29.37c.34-.36,1.13-.15,1.77.47s.88,1.42.55,1.79Z" style="fill:#f1d6ab"/><path d="M314.09,1.76,302.25,40s0,0-.08,0-.05,0-.05-.05L311,.92c.11-.48.9-.69,1.77-.47s1.47.79,1.36,1.27Z" style="fill:#f1d6ab"/></g></g></svg>