<svg xmlns="http://www.w3.org/2000/svg" viewBox="0 0 338 338"><title>firework1</title><g id="图层_2" data-name="图层 2"><g id="图层_1-2" data-name="图层 1"><path d="M172.77,1.9l-2.24,82.89a.08.08,0,0,1-.09.07.1.1,0,0,1-.1-.07L168.1,1.9A2.12,2.12,0,0,1,170.39,0a2.16,2.16,0,0,1,2.38,1.82Z" style="fill:#f1d6ab"/><path d="M88.72,22.4l39.5,72.9a.08.08,0,0,1-.05.11.08.08,0,0,1-.11,0L84.68,24.73a2.1,2.1,0,0,1,1-2.78,2.17,2.17,0,0,1,3,.38A.25.25,0,0,0,88.72,22.4Z" style="fill:#f1d6ab"/><path d="M26.17,82.18l70.66,43.39a.08.08,0,0,1,0,.12.09.09,0,0,1-.11,0l-72.9-39.5a2.11,2.11,0,0,1-.5-2.93,2.15,2.15,0,0,1,2.76-1.16Z" style="fill:#f1d6ab"/><path d="M1.9,165.23l82.89,2.24a.08.08,0,0,1,.07.09.1.1,0,0,1-.07.1L1.9,169.89A2.1,2.1,0,0,1,0,167.61a2.16,2.16,0,0,1,1.82-2.38Z" style="fill:#f1d6ab"/><path d="M22.4,249.28l72.9-39.5a.08.08,0,0,1,.11.05.08.08,0,0,1,0,.11L24.73,253.32a2.1,2.1,0,0,1-2.78-1,2.17,2.17,0,0,1,.38-3Z" style="fill:#f1d6ab"/><path d="M82.18,311.83l43.39-70.67a.1.1,0,0,1,.16.1l-39.5,72.9a2.11,2.11,0,0,1-2.93.5,2.15,2.15,0,0,1-1.16-2.76Z" style="fill:#f1d6ab"/><path d="M165.23,336.1l2.24-82.89a.08.08,0,0,1,.09-.07.1.1,0,0,1,.1.07l2.23,82.89a2.1,2.1,0,0,1-2.28,1.9,2.16,2.16,0,0,1-2.38-1.82Z" style="fill:#f1d6ab"/><path d="M249.28,315.6l-39.5-72.9a.08.08,0,0,1,.05-.11.08.08,0,0,1,.11,0l43.38,70.67a2.1,2.1,0,0,1-1,2.78,2.17,2.17,0,0,1-3-.38A.25.25,0,0,0,249.28,315.6Z" style="fill:#f1d6ab"/><path d="M311.83,255.82l-70.67-43.39a.1.1,0,0,1,.1-.16l72.9,39.5a2.11,2.11,0,0,1,.5,2.93,2.15,2.15,0,0,1-2.76,1.16Z" style="fill:#f1d6ab"/><path d="M336.1,172.77l-82.89-2.24a.08.08,0,0,1-.07-.09.1.1,0,0,1,.07-.1l82.89-2.24a2.12,2.12,0,0,1,1.9,2.29,2.16,2.16,0,0,1-1.82,2.38Z" style="fill:#f1d6ab"/><path d="M315.6,88.72l-72.9,39.5a.08.08,0,0,1-.11-.05.08.08,0,0,1,0-.11l70.67-43.38a2.1,2.1,0,0,1,2.78,1,2.17,2.17,0,0,1-.38,3Z" style="fill:#f1d6ab"/><path d="M255.82,26.17,212.43,96.83a.08.08,0,0,1-.12,0,.09.09,0,0,1,0-.11l39.5-72.9a2.11,2.11,0,0,1,2.93-.5,2.15,2.15,0,0,1,1.16,2.76Z" style="fill:#f1d6ab"/><path d="M142.09,55.67,154.87,112s0,.06-.08.07a.08.08,0,0,1-.1,0L137.58,56.88c-.21-.68.62-1.52,1.86-1.87s2.42-.07,2.63.61C142.08,55.64,142.08,55.66,142.09,55.67Z" style="fill:#f1d6ab"/><path d="M89,84.31l39.25,42.42s0,.07,0,.11-.08,0-.1,0L85.73,87.61c-.52-.48-.22-1.62.68-2.55s2.06-1.27,2.58-.79C89,84.29,89,84.3,89,84.31Z" style="fill:#f1d6ab"/><path d="M57.4,135.64l55.21,17.11s0,.06,0,.11a.1.1,0,0,1-.07.08L56.19,140.15c-.69-.16-1-1.3-.68-2.55s1.14-2.13,1.84-2Z" style="fill:#f1d6ab"/><path d="M55.67,195.91,112,183.13s.06,0,.07.08a.08.08,0,0,1,0,.1L56.88,200.42c-.68.21-1.52-.62-1.87-1.86s-.07-2.42.61-2.63Z" style="fill:#f1d6ab"/><path d="M84.31,249l42.42-39.25s.07,0,.11,0,0,.08,0,.1L87.61,252.27c-.48.52-1.62.22-2.55-.68s-1.27-2.06-.79-2.58C84.29,249,84.3,249,84.31,249Z" style="fill:#f1d6ab"/><path d="M135.64,280.6l17.11-55.21s.06,0,.11,0a.1.1,0,0,1,.08.07l-12.79,56.37c-.16.69-1.3,1-2.55.68s-2.13-1.14-2-1.84Z" style="fill:#f1d6ab"/><path d="M195.91,282.33,183.13,226s0-.06.08-.07a.08.08,0,0,1,.1,0l17.11,55.21c.21.68-.62,1.52-1.86,1.87s-2.42.07-2.63-.61C195.92,282.36,195.92,282.34,195.91,282.33Z" style="fill:#f1d6ab"/><path d="M249,253.69l-39.25-42.42s0-.07,0-.11.08,0,.1,0l42.42,39.26c.52.48.22,1.62-.68,2.55s-2.06,1.27-2.58.79Z" style="fill:#f1d6ab"/><path d="M280.6,202.36l-55.21-17.11s0-.06,0-.11a.1.1,0,0,1,.07-.08l56.37,12.79c.69.16,1,1.3.68,2.55s-1.14,2.13-1.84,2Z" style="fill:#f1d6ab"/><path d="M282.33,142.09,226,154.87s-.06,0-.07-.08a.08.08,0,0,1,0-.1l55.21-17.11c.68-.21,1.52.62,1.87,1.86s.07,2.42-.61,2.63Z" style="fill:#f1d6ab"/><path d="M253.69,89l-42.42,39.25s-.07,0-.11,0,0-.08,0-.1l39.26-42.42c.48-.52,1.62-.22,2.55.68s1.27,2.06.79,2.58Z" style="fill:#f1d6ab"/><path d="M202.36,57.4l-17.11,55.21s-.06,0-.11,0a.1.1,0,0,1-.08-.07l12.79-56.37c.16-.69,1.3-1,2.55-.68s2.13,1.14,2,1.84Z" style="fill:#f1d6ab"/></g></g></svg>