<svg xmlns="http://www.w3.org/2000/svg" viewBox="0 0 935.48 74.7"><title>pc_title</title><g id="图层_2" data-name="图层 2"><g id="图层_1-2" data-name="图层 1"><g id="图层_1-2-2" data-name="图层 1-2"><g style="isolation:isolate"><g style="isolation:isolate"><path d="M45.43,30c4.56,5.88,13.45,9.45,21,10.78l-.14.91c-2.8,1.4-4.76,3.3-5.18,5.89a32.64,32.64,0,0,1-10.79-7.43l-.34.07V63.43c-.07.56-3.57,2-5.89,2H42.91V61.26h-20v2.31c0,.49-2.17,2-5.6,2H16V39.69A56.81,56.81,0,0,1,.63,49.08L0,48.38A53.94,53.94,0,0,0,17.85,30H1.54l-.56-2H19a68.71,68.71,0,0,0,3.22-7.35H7.84l-.56-2H23c.77-2.38,1.47-4.69,2-7.07H4.76l-.63-2H25.48q.94-4.51,1.47-9l10.15,2C36.82,3.43,36,4.06,34.37,4.06c-.35,1.75-.7,3.57-1.19,5.39H51.25l3.92-5s4.55,3.36,7.42,5.88c-.21.77-1,1.12-2,1.12H32.69c-.7,2.45-1.4,4.76-2.31,7.07H47.67l3.79-4.69s4.27,3.22,6.93,5.6c-.21.77-.91,1.12-1.89,1.12h-27a51.67,51.67,0,0,1-3.71,7.35H53.77l4.06-5.11s4.76,3.5,7.56,6c-.14.77-.84,1.12-1.89,1.12Zm.77,4.83A45.59,45.59,0,0,1,43.47,30H24.57a56.83,56.83,0,0,1-4.83,6l4.06,1.61H42.42l3.15-3.29ZM22.89,48.17h20V39.62h-20Zm20,11.06v-9h-20v9Z" style="fill:#f1d6ab"/><path d="M125.8,4.76a93.4,93.4,0,0,1,7.14,6.37c-.14.77-.84,1.12-1.89,1.12H114.38v7.84c0,.7-2.59,1.89-5.53,1.89h-1V12.25H92.33v8.26c0,.77-2.87,1.75-5.46,1.75H85.82v-10H68.11l-.49-2h18.2V0l9,.84c-.14.91-.7,1.61-2.52,1.89v7.49H107.8V0l9,.84c-.06.91-.69,1.61-2.45,1.89v7.49h7.36Zm-5.32,16.59,6.65,5.53a4.36,4.36,0,0,1-2.8,1.19c-.35,15.4-1,22.62-4,25.14-1.82,1.68-4.49,2.45-7.92,2.45,0-2-.21-3.71-1.19-4.62s-3.36-1.89-6-2.38v-1c2.52.27,6.72.56,8,.56a2.55,2.55,0,0,0,2.11-.63c1.39-1.33,1.82-8.2,2.1-20.52H99.89v36.9c0,.49-2.24,1.89-5.88,1.89H92.75V27H72.94l-.63-2h44.52Z" style="fill:#f1d6ab"/><path d="M186.07,12.11a30.8,30.8,0,0,0,14.42,11.2l-.07.7c-2.38.56-3.92,2.38-4.76,5.53-4.9-3.64-8.68-9.45-11.06-16.94V29.12c0,.56-2.81,1.82-5.33,1.82h-1.12V18.55a44.91,44.91,0,0,1-15.89,11.13l-.7-1.05a38.42,38.42,0,0,0,13.51-16.52h-8.68l-.14-.63a2.17,2.17,0,0,1-1.68.63h-9.66v2.73c15.4,2.8,11.13,13,5.81,9.52-.84-2.8-3.43-6.16-5.81-8.4V29.61c0,.63-2.73,1.82-5.11,1.82h-1.19V19.74a46.84,46.84,0,0,1-13.16,10.5l-.77-1a43.23,43.23,0,0,0,11.41-17.15h-9.73l-.56-2h12.81V.49l8.89.84c-.14,1-.7,1.68-2.59,2v6.79h2.17l3.29-4.41s3.29,2.66,5.6,4.83l-.14-.42h12.32V.7l9,.91c-.14,1-.77,1.61-2.59,1.89v6.58h4.9L193,5.53s4.06,3.15,6.51,5.46c-.21.77-.91,1.12-1.89,1.12Zm-27.66,39.7c-.42.63-1,1-2.52.7-4.27,4.34-11.76,9-19.74,11.48l-.63-.84a48.58,48.58,0,0,0,15-15.82Zm33.82-12.89s4.48,3.29,7.28,5.75a1.8,1.8,0,0,1-1.89,1H171.15v12c0,4.62-1.19,7.42-9.24,8.05-.14-1.82-.49-3.36-1.47-4.27s-2.59-1.75-5.95-2.17v-1s6.93.42,8.4.42c1.19,0,1.47-.35,1.47-1.12v-12h-28l-.63-2h52.44Zm-6.44-9.1s4.27,3.22,6.93,5.46c-.14.77-.91,1.12-1.89,1.12H143.92l-.56-2H182Zm-8.13,19c24.16,3,22.06,17.64,14.57,14.56-2.94-4.83-9.88-10.64-15.06-13.86Z" style="fill:#f1d6ab"/><path d="M233.87,29.05A4.4,4.4,0,0,1,231,30.24c-.56,21.22-2,29.55-5.18,32.56a10.88,10.88,0,0,1-7.63,2.73c0-2-.14-3.5-1-4.34s-2.59-1.68-4.62-2.17V58c2,.14,5.11.42,6.44.42a2.92,2.92,0,0,0,2.24-.77c2-1.82,3.08-10.37,3.57-28.29h-8.4c-1.05,14.07-4.06,26.75-13.79,36.48l-.77-.63c8-13.86,8.89-30.67,8.54-48h-7.63l-.56-2H226l3.78-4.9s4.2,3.43,6.72,5.81c-.21.77-.84,1.12-1.82,1.12H217q-.1,5.15-.42,10.08h7.63l3.43-3.57ZM212.8,1.26c16.66,4.69,11,16.59,5,12-.63-3.78-3.36-8.54-5.67-11.55Zm49.57,17.5c-1.54,10.78-4.48,20.44-10,28.49A41.89,41.89,0,0,0,268,59.86l-.21.63A7.08,7.08,0,0,0,261.88,66a40.46,40.46,0,0,1-13-14.28c-5,5.74-11.83,10.5-20.86,14.14l-.56-.84a53.38,53.38,0,0,0,18.9-18.55,96.69,96.69,0,0,1-5.46-21.71A45.37,45.37,0,0,1,233,35.21l-.91-.56c4.34-8.54,8-21.28,9.24-33.88l10,2c-.21.91-1.05,1.61-2.59,1.68a106.88,106.88,0,0,1-3.93,12.25H257l3.85-5s4.48,3.43,7.07,6c-.14.77-.91,1.12-1.89,1.12Zm-18.49,0c-.56,1.33-1.19,2.66-1.82,3.85a66.68,66.68,0,0,0,6.73,19.32,68.23,68.23,0,0,0,6.09-23.17Z" style="fill:#f1d6ab"/><path d="M275.31,16.45c2.66,7.84,2.45,14.21-1,17.15-3.71,3.15-7.77-1.19-3.5-5,1.61-1.54,3.64-6.23,3.5-12.18Zm59.3-8.82a5.72,5.72,0,0,1-3.08,1.47V62.73c-.07.56-2.94,2-5,2h-.84v-5H302.33v3.92c0,.77-2.24,2.24-4.83,2.24h-1.05V19.6a3.26,3.26,0,0,1-1.33-.21,116.87,116.87,0,0,1-9.24,8.82,115,115,0,0,1-1.19,13c14.63,8.13,9.24,19.33,4,14.43-.21-3.78-2.17-8.41-4.48-12-1.89,9.25-5.81,16.32-14,21.85l-.91-1C281.61,51.6,279.93,32.55,279.93,1l8.75.91c-.21,1.05-1,1.75-2.59,2-.07,7.84,0,15-.14,21.42a105.22,105.22,0,0,0,5-11.34L296.45,18V3.08L302.75,6h22.13L328,2.31Zm-9,50.13V8H302.33V57.76Zm-9.46-32.21a60.34,60.34,0,0,1-.56,7.07c11.77,12.18,7.5,22.55,3,18.14-.14-4.55-1.75-10.16-3.58-14.85-1.4,6.65-4.41,13.24-10.78,17.86l-.91-.77c6.44-7.57,7.42-18.28,7.49-27.45h-6.58l-.56-2h7.14V10.78l7.64.84c-.22.91-.77,1.54-2.38,1.82V23.52H317l2.59-3.71a65.85,65.85,0,0,1,4.83,4.62c-.14.77-.77,1.12-1.75,1.12Z" style="fill:#f1d6ab"/><path d="M363.23,22.05c-.42.77-1.33,1.33-2.94,1.05a61.29,61.29,0,0,1-5.53,8.12l3.85,1.4c-.28.63-.91,1.05-2.17,1.33V64.2c-.14.42-2.87,1.61-5.39,1.61h-1.19V36.61a58.67,58.67,0,0,1-13.23,9.67l-.77-.85c6.79-6,14.07-16.24,18.48-27.51l1.19.56v-7h-18.2l-.42-2h18.62V.77l9,.84c-.07.91-.63,1.61-2.45,1.82v6h14V.77l9.11.84c-.07.91-.64,1.61-2.45,1.82v6h8.19l3.92-5s4.41,3.5,6.93,5.95c-.14.77-.91,1.12-1.89,1.12H382.7v5.67c0,.63-2.53,1.68-5.54,1.75H376V11.48H362v6c0,.7-2.45,1.61-5,1.68ZM399,57.13c2,.77,2.59,1.54,2.59,2.8,0,2.94-3,4-15.27,4h-7.91c-6.86,0-8.68-1.47-8.68-6.51V43.61c-2.45.77-4.76,1.47-7,2l-.42-.84a80.09,80.09,0,0,0,7.42-3.93V19.25l9,1c-.07.91-.7,1.61-2.31,1.82V36.61A110.72,110.72,0,0,0,391.94,24l6.72,6.37c-.7.63-1.47.7-3,.14a86.63,86.63,0,0,1-19.26,10.64V55.87c0,1.47.56,2,3.29,2h7.15c2.94,0,5.32,0,6.37-.14a1.84,1.84,0,0,0,1.82-1c.7-1.33,1.82-5.46,2.94-10.16h.84Z" style="fill:#f1d6ab"/></g><g style="isolation:isolate"><path d="M461.1,17.22s4.76,3.64,7.7,6.23c-.21.77-.91,1.12-2,1.12h-48V27c0,12-1.12,27.87-14.7,38l-.84-.7c8-11.06,8.89-24.86,8.89-37.46V7.14l8.33,2.73-.07.07C433.16,7.7,447.3,3.85,455.08.7l7.07,6.72c-.77.7-2.17.7-4.27-.07a282.85,282.85,0,0,1-39,4.55V22.54h37.95ZM457,32.9l6.44,4.9a4.07,4.07,0,0,1-2.66,1.26V63.64c0,.35-2.24,1.61-5.53,1.61H454.1v-5.6H429.87V64.2c0,.49-2,1.68-5.25,1.68H423.5V33.74l7.14,2.8h23.17ZM454.1,57.62v-19H429.87v19Z" style="fill:#f1d6ab"/></g><g style="isolation:isolate"><path d="M469.91,72.67c5.53-2.94,7.42-7.14,7.84-10.29-3-1.05-7.21-2.52-7.21-6.72a5.1,5.1,0,0,1,5.32-5.11c3.5,0,5.95,2.8,5.95,7.21A18.26,18.26,0,0,1,471,74.7Z" style="fill:#f1d6ab"/></g><g style="isolation:isolate"><path d="M566.94,58.25c1.89,3.85,2.17,5.88,1.12,6.65-2.87,2.17-7.49-1-9.73-4.13a44.23,44.23,0,0,1-5.25-9.45,51.64,51.64,0,0,1-19.05,14l-.63-1.12a52.46,52.46,0,0,0,17.78-17.92c-2.73-8.55-4.06-18.49-4.62-29.2h-15V28h6.16l3.08-3.08,6,4.76a3.89,3.89,0,0,1-2.59,1.19c-.28,13.3-.77,19.54-3.29,21.78a8,8,0,0,1-5.46,1.75A5.41,5.41,0,0,0,534.31,51,9.76,9.76,0,0,0,530,49V48c1.82.13,4.69.35,5.53.35a1.28,1.28,0,0,0,1.19-.49c1-1.27,1.4-6.73,1.61-17.79h-6.79v.77c0,11.48-1.54,25.77-16.52,34.87l-.84-.77c7.07-7.07,9.8-15.4,10.71-24-3.85,2.8-9.52,6.79-17.15,11.7a2.81,2.81,0,0,1-1.54,2l-3.85-7.91c1.75-.42,4.62-1.26,8.19-2.38V22.75h-6.86l-.56-2h7.42V2.17l8.89.91c-.14,1-.7,1.68-2.59,1.89V20.72h.56l3.22-5s2.73,2.73,4.76,5v-8.4l7.21,2.73h13.93c-.21-4.34-.28-8.82-.28-13.44l9,1a1.85,1.85,0,0,1-.48,1.12c10.22.56,10.92,6,8.4,7.91,1.4,1.12,3.64,2.87,5.32,4.34-.21.77-.91,1.12-1.89,1.12h-13.8a117.63,117.63,0,0,0,2.45,21.14,98.06,98.06,0,0,0,4.7-15.12l8.26,2.66c-.35.84-1,1.26-2.8,1.19a76.47,76.47,0,0,1-8,18.48,31.51,31.51,0,0,0,5.18,9.32c.84,1.19,1.19,1.19,1.82-.14a54.45,54.45,0,0,0,3.15-7.91l.84.13Zm-50.13-16q4-1.26,8.19-2.73c.28-2.87.35-5.81.35-8.68V22.61a3.65,3.65,0,0,1-1,.14h-7.56ZM560.5,12.11a4.57,4.57,0,0,1-1.54-.56c-.7-2.59-3.15-5.67-5.12-7.28a4.76,4.76,0,0,1-1.18.28q-.12,5.25,0,10.5h5.46Z" style="fill:#f1d6ab"/><path d="M627.63,6.93s4.83,3.71,7.84,6.37c-.21.77-.91,1.12-2,1.12H606.2v9.45h12.6L622,20.23l7.21,5.46a6,6,0,0,1-2.94,1.4V48.52c0,4.62-1.05,7.35-9,8-.21-2-.57-3.57-1.41-4.55s-2.52-1.82-5.67-2.24V48.73s6.23.42,7.84.42c1.2,0,1.54-.42,1.54-1.33V25.9H606.2v38c0,.56-2.17,2-5.67,2h-1.26V25.9H586V54c0,.7-2.87,2.17-5.6,2.17h-1V20.86l7.14,3h12.81V14.42H571l-.63-2h52.86ZM595.49.63c18.14,1.47,12.88,14.84,6,10.57-.91-3.64-3.92-7.7-6.51-10.08Z" style="fill:#f1d6ab"/><path d="M702.74,13.79c-.49.63-1.26.77-2.73.84a55.21,55.21,0,0,1-8.26,7.7c10.43,6,8.12,13.93,2.17,11.83-3.92-5.6-12.82-12.53-19.54-16.1l.56-.77c6.65.91,11.77,2.38,15.41,4.27.77-2.45,1.54-5.74,2.1-8.33H647.36c.56,5.18-1.26,8.68-3.64,10.15-2.17,1.4-5,1.05-6-1.19s.56-3.92,2.38-4.83c2.66-1.61,5-5.81,4.48-10.43l1-.07a34.28,34.28,0,0,1,1.4,4.34H692l4-4Zm-8.47,40.89s4.48,3.57,7.28,6.23c-.21.77-1,1.12-2,1.12H638.75l-.63-2h28.49V38.85H645.68l-.56-2h39.76l3.79-5s4.27,3.5,6.93,5.88c-.21.77-.91,1.12-1.89,1.12H673.4V60h16.88ZM668.5,20.44c-.35.84-1.33,1.33-3.43,1.19A78,78,0,0,1,640.5,35.77l-.56-.77c7.49-4.76,16.38-14,19.74-19.25ZM664.3.21c17.36,1.12,10.92,14.91,4,9.8A14.77,14.77,0,0,0,663.74.63Z" style="fill:#f1d6ab"/><path d="M723.17,12.67c-4.83,9.1-10.85,16.52-17.78,21.77l-.84-.63c6-7.91,12-20.58,15.26-33.39l9.66,3.22c-.35.84-1.19,1.47-2.8,1.4-.77,1.89-1.68,3.78-2.59,5.6H756l4.14-5s4.55,3.29,7.56,6c-.21.77-.91,1.12-2,1.12Zm45.65,46.14c1.89,2,2.31,3.36,1.75,4.62-1.19,2.52-4.48,2.52-8.12,1.19-12.26-4-13.94-17.29-14.22-33.4H713.51l-.56-2h34.51l3.5-3.71,6.87,5.39A5,5,0,0,1,755,32c-.28,10.72,1,23.11,9.45,25.42,1.12.35,1.47.14,1.82-.63a43.81,43.81,0,0,0,2-6.45l.84.08ZM751.59,19.67l3.93-4.83s4.48,3.29,7.14,5.74a1.68,1.68,0,0,1-1.82,1.12H720.58l-.56-2Z" style="fill:#f1d6ab"/><path d="M797.16,12.74l6.3,5.67c-.42.7-1.12,1-2.66,1.19-1,10.08-2.73,19.6-7.14,27.73,13.65,8.4,7.91,15.54,2.8,12.6a44.65,44.65,0,0,0-6.37-7.28c-4.13,5.25-10,9.66-18.2,13l-.63-.91a40.3,40.3,0,0,0,15.4-15.26,98.89,98.89,0,0,0-13-9c1.82-5.11,4.2-13.79,6.16-22h-7.63l-.63-2h8.68c1.47-6.3,2.73-12,3.22-15.75l9,1.4c-.21.84-.7,1.61-2.73,1.82-.7,3.22-1.75,7.63-2.94,12.53h6.93Zm-11,5.74c-2,7.63-4.41,16-6.65,22.4A86.75,86.75,0,0,1,789,44.74c3.22-7.78,4.62-16.67,5.25-26.26Zm49.43-4.76a5.72,5.72,0,0,1-3.08,1.54V59.09c-.07.63-3.22,2.45-5.67,2.45h-1.06V53.7h-13V61c0,.77-2.45,2.38-5.32,2.38h-1.12V8.89L813.12,12h12l3.44-3.92Zm-9.81,38V13.93h-13V51.67Z" style="fill:#f1d6ab"/><path d="M862.54,3.71a2.53,2.53,0,0,1-2.73,1.4,100.68,100.68,0,0,1-7.21,15.12l3.5,1.33c-.21.7-.84,1.12-2.1,1.33V63.78c-.14.56-2.8,2-5.46,2h-1.19V28a59.43,59.43,0,0,1-8.61,9.1l-.91-.63c5.88-8.61,12-22.19,15.12-35.7Zm34.8,0s4.76,3.78,7.63,6.51c-.21.77-.91,1.12-2,1.12h-5.32V57c0,4.76-1.26,8.19-10.09,8.82a6.75,6.75,0,0,0-1.89-4.76c-1.33-1-3.29-1.82-7.28-2.38v-1s8.82.56,10.65.56c1.39,0,1.82-.49,1.82-1.54V11.34H860.16l-.56-2h33.54ZM883.12,47.19c-.14.35-3.08,1.6-5.18,1.6h-1v-4.9h-9.24v4.2c0,.64-2.59,2-5.18,2h-1V19L868,21.77h8.19l3.22-3.57,6.86,5.32A5.73,5.73,0,0,1,883.12,25ZM877,41.86V23.8h-9.24V41.86Z" style="fill:#f1d6ab"/></g><g style="isolation:isolate"><path d="M914.69,15.82c-.63,2.73-2,4.06-4.2,4.06a3.91,3.91,0,0,1-3.5-2c1-7.84,6.86-11.76,14.49-11.76,8.75,0,14,4.41,14,11.55,0,5.46-2.1,9-8.75,14-4.34,3.36-6.16,4.76-6.16,7.7v3.64h-2.73a28.3,28.3,0,0,1-1-6.37c0-2.94,1.4-4.83,5.81-8.82,3.85-3.57,5.32-6.58,5.32-10.5,0-5.18-3.36-8.47-8.82-8.47a13.11,13.11,0,0,0-2.94.28Zm10.22,39.35a5.32,5.32,0,0,1-10.64,0,5.32,5.32,0,1,1,10.64,0Z" style="fill:#f1d6ab"/></g></g></g></g></g></svg>