<?xml version="1.0" encoding="utf-8"?>
<!-- Generator: Adobe Illustrator 23.0.1, SVG Export Plug-In . SVG Version: 6.00 Build 0)  -->
<svg version="1.1" id="图层_1" xmlns="http://www.w3.org/2000/svg" xmlns:xlink="http://www.w3.org/1999/xlink" x="0px" y="0px"
	 viewBox="0 0 521 163.7" style="enable-background:new 0 0 521 163.7;" xml:space="preserve">
<style type="text/css">
	.st0{fill:#F1D6AB;}
</style>
<title>mb_title</title>
<g>
	<g id="图层_1-2">
		<path class="st0" d="M45.4,30c4.6,5.9,13.5,9.5,21,10.8l-0.1,0.9c-2.8,1.4-4.8,3.3-5.2,5.9c-4.1-1.7-7.7-4.2-10.8-7.4L50,40.2
			v23.2c-0.1,0.6-3.6,2-5.9,2h-1.2v-4.2h-20v2.3c0,0.5-2.2,2-5.6,2H16V39.7c-4.6,3.9-9.8,7.1-15.4,9.4L0,48.4
			C7.3,43.8,13.5,37.5,17.9,30H1.5L1,28h18c1.2-2.4,2.3-4.8,3.2-7.4H7.8l-0.6-2H23c0.8-2.4,1.5-4.7,2-7.1H4.8l-0.6-2h21.3
			c0.6-3,1.1-6,1.5-9l10.1,2c-0.3,0.9-1.1,1.5-2.7,1.5c-0.3,1.8-0.7,3.6-1.2,5.4h18.1l3.9-5c0,0,4.5,3.4,7.4,5.9
			c-0.2,0.8-1,1.1-2,1.1H32.7c-0.7,2.4-1.4,4.8-2.3,7.1h17.3l3.8-4.7c0,0,4.3,3.2,6.9,5.6c-0.2,0.8-0.9,1.1-1.9,1.1h-27
			c-1,2.5-2.3,5-3.7,7.4h28l4.1-5.1c0,0,4.8,3.5,7.6,6c-0.1,0.8-0.8,1.1-1.9,1.1L45.4,30z M46.2,34.8c-1-1.6-1.9-3.2-2.7-4.8H24.6
			c-1.5,2.1-3.1,4.1-4.8,6l4.1,1.6h18.6l3.2-3.3L46.2,34.8z M22.9,48.2h20v-8.5h-20V48.2z M42.9,59.2v-9h-20v9H42.9z"/>
		<path class="st0" d="M131.3,4.8c2.5,2,4.9,4.1,7.1,6.4c-0.1,0.8-0.8,1.1-1.9,1.1h-16.7v7.8c0,0.7-2.6,1.9-5.5,1.9h-1v-9.7H97.8
			v8.3c0,0.8-2.9,1.8-5.5,1.8h-1v-10H73.6l-0.5-2h18.2V0l9,0.8c-0.1,0.9-0.7,1.6-2.5,1.9v7.5h15.5V0l9,0.8c-0.1,0.9-0.7,1.6-2.4,1.9
			v7.5h7.4L131.3,4.8z M125.9,21.4l6.7,5.5c-0.8,0.7-1.8,1.1-2.8,1.2c-0.4,15.4-1,22.6-4,25.1c-1.8,1.7-4.5,2.5-7.9,2.5
			c0-2-0.2-3.7-1.2-4.6s-3.4-1.9-6-2.4v-1c2.5,0.3,6.7,0.6,8.1,0.6c0.8,0.1,1.5-0.1,2.1-0.6c1.4-1.3,1.8-8.2,2.1-20.5h-17.6V64
			c0,0.5-2.2,1.9-5.9,1.9h-1.3V27H78.4l-0.6-2h44.5L125.9,21.4z"/>
		<path class="st0" d="M197,12.1c3.6,5.1,8.6,9,14.4,11.2l-0.1,0.7c-2.4,0.6-3.9,2.4-4.8,5.5c-4.9-3.6-8.7-9.5-11.1-16.9v16.5
			c0,0.6-2.8,1.8-5.3,1.8h-1.1V18.5c-4.4,4.8-9.8,8.6-15.9,11.1l-0.7-1c6-4.1,10.7-9.8,13.5-16.5h-8.7l-0.1-0.6
			c-0.4,0.4-1.1,0.7-1.7,0.6h-9.7v2.7c15.4,2.8,11.1,13,5.8,9.5c-0.8-2.8-3.4-6.2-5.8-8.4v13.6c0,0.6-2.7,1.8-5.1,1.8h-1.2V19.7
			c-3.7,4.3-8.2,7.8-13.2,10.5l-0.8-1c5.1-4.7,9-10.6,11.4-17.1h-9.7l-0.6-2h12.8V0.5l8.9,0.8c-0.1,1-0.7,1.7-2.6,2v6.8h2.2l3.3-4.4
			c0,0,3.3,2.7,5.6,4.8l-0.1-0.4h12.3V0.7l9,0.9c-0.1,1-0.8,1.6-2.6,1.9v6.6h4.9l3.5-4.6c0,0,4.1,3.2,6.5,5.5
			c-0.2,0.8-0.9,1.1-1.9,1.1L197,12.1z M169.3,51.8c-0.4,0.6-1,1-2.5,0.7c-4.3,4.3-11.8,9-19.7,11.5l-0.6-0.8
			c6.2-4.1,11.3-9.5,15.1-15.8L169.3,51.8z M203.2,38.9c0,0,4.5,3.3,7.3,5.8c-0.3,0.7-1.1,1.1-1.9,1h-26.5v12c0,4.6-1.2,7.4-9.2,8
			c-0.1-1.8-0.5-3.4-1.5-4.3s-2.6-1.8-6-2.2v-1c0,0,6.9,0.4,8.4,0.4c1.2,0,1.5-0.3,1.5-1.1v-12h-28l-0.6-2H199L203.2,38.9z
			 M196.7,29.8c0,0,4.3,3.2,6.9,5.5c-0.1,0.8-0.9,1.1-1.9,1.1h-46.9l-0.6-2h38.6L196.7,29.8z M188.6,48.8
			c24.2,3,22.1,17.6,14.6,14.6c-2.9-4.8-9.9-10.6-15.1-13.9L188.6,48.8z"/>
		<path class="st0" d="M250.3,29c-0.8,0.7-1.8,1.2-2.9,1.2c-0.6,21.2-2,29.6-5.2,32.6c-2.1,1.9-4.8,2.8-7.6,2.7c0-2-0.1-3.5-1-4.3
			S231,59.5,229,59v-1c2,0.1,5.1,0.4,6.4,0.4c0.8,0.1,1.6-0.2,2.2-0.8c2-1.8,3.1-10.4,3.6-28.3h-8.4c-1,14.1-4.1,26.8-13.8,36.5
			l-0.8-0.6c8-13.9,8.9-30.7,8.5-48h-7.6l-0.6-2h23.8l3.8-4.9c0,0,4.2,3.4,6.7,5.8c-0.2,0.8-0.8,1.1-1.8,1.1h-17.7
			c-0.1,3.4-0.2,6.8-0.4,10.1h7.6l3.4-3.6L250.3,29z M229.2,1.3c16.7,4.7,11,16.6,5,12c-0.6-3.8-3.4-8.5-5.7-11.6L229.2,1.3z
			 M278.8,18.8c-1.5,10.8-4.5,20.4-10,28.5c4.1,5.4,9.5,9.7,15.7,12.6l-0.2,0.6c-2.9,0.4-5.3,2.6-6,5.5c-5.4-3.6-9.9-8.5-13-14.3
			c-5,5.7-11.8,10.5-20.9,14.1l-0.6-0.8c7.8-4.5,14.3-10.9,18.9-18.5c-2.7-7-4.5-14.3-5.5-21.7c-2.1,3.9-4.8,7.4-7.9,10.5l-0.9-0.6
			c4.3-8.5,8-21.3,9.2-33.9l10,2c-0.2,0.9-1.1,1.6-2.6,1.7c-1.1,4.2-2.4,8.3-3.9,12.3h12.3l3.9-5c0,0,4.5,3.4,7.1,6
			c-0.1,0.8-0.9,1.1-1.9,1.1L278.8,18.8z M260.3,18.8c-0.6,1.3-1.2,2.7-1.8,3.9c1.2,6.7,3.5,13.3,6.7,19.3
			c3.4-7.3,5.4-15.1,6.1-23.2H260.3z"/>
		<path class="st0" d="M297.1,16.5c2.7,7.8,2.5,14.2-1,17.1c-3.7,3.2-7.8-1.2-3.5-5c1.6-1.5,3.6-6.2,3.5-12.2L297.1,16.5z
			 M356.4,7.6c-0.9,0.8-1.9,1.3-3.1,1.5v53.6c-0.1,0.6-2.9,2-5,2h-0.8v-5h-23.4v3.9c0,0.8-2.2,2.2-4.8,2.2h-1V19.6
			c-0.5,0-0.9,0-1.3-0.2c-2.9,3.1-6,6.1-9.2,8.8c-0.2,4.4-0.5,8.7-1.2,13c14.6,8.1,9.2,19.3,4,14.4c-0.2-3.8-2.2-8.4-4.5-12
			c-1.9,9.3-5.8,16.3-14,21.8l-0.9-1c12.3-12.9,10.6-31.9,10.6-63.5l8.8,0.9c-0.2,1-1,1.8-2.6,2c-0.1,7.8,0,15-0.1,21.4
			c1.9-3.7,3.6-7.5,5-11.3l5.5,4V3.1l6.3,2.9h22.1l3.1-3.6L356.4,7.6z M347.4,57.8V8h-23.3v49.8L347.4,57.8z M338,25.5
			c-0.1,2.4-0.2,4.7-0.6,7.1c11.8,12.2,7.5,22.5,3,18.1c-0.1-4.5-1.8-10.2-3.6-14.9c-1.4,6.7-4.4,13.2-10.8,17.9l-0.9-0.8
			c6.4-7.6,7.4-18.3,7.5-27.5h-6.6l-0.6-2h7.1V10.8l7.6,0.8c-0.2,0.9-0.8,1.5-2.4,1.8v10.1h0.9l2.6-3.7c1.7,1.5,3.3,3,4.8,4.6
			c-0.1,0.8-0.8,1.1-1.8,1.1L338,25.5z"/>
		<path class="st0" d="M390.5,22c-0.4,0.8-1.3,1.3-2.9,1c-1.6,2.9-3.5,5.6-5.5,8.1l3.9,1.4c-0.3,0.6-0.9,1-2.2,1.3v30.2
			c-0.1,0.4-2.9,1.6-5.4,1.6h-1.2V36.6c-3.9,3.8-8.4,7.1-13.2,9.7l-0.8-0.8c6.8-6,14.1-16.2,18.5-27.5l1.2,0.6v-7h-18.2l-0.4-2h18.6
			V0.8l9,0.8c-0.1,0.9-0.6,1.6-2.5,1.8v6h14V0.8l9.1,0.8c-0.1,0.9-0.6,1.6-2.5,1.8v6h8.2l3.9-5c0,0,4.4,3.5,6.9,5.9
			c-0.1,0.8-0.9,1.1-1.9,1.1H410v5.7c0,0.6-2.5,1.7-5.5,1.8h-1.1v-7.4h-14v6c0,0.7-2.5,1.6-5,1.7L390.5,22z M426.3,57.1
			c2,0.8,2.6,1.5,2.6,2.8c0,2.9-3,4-15.3,4h-7.9c-6.9,0-8.7-1.5-8.7-6.5V43.6c-2.5,0.8-4.8,1.5-7,2l-0.4-0.8c2.5-1.2,5-2.5,7.4-4
			V19.3l9,1c-0.1,0.9-0.7,1.6-2.3,1.8v14.5c5.5-3.7,10.7-7.9,15.5-12.6l6.8,6.4c-0.7,0.6-1.5,0.7-3,0.1c-5.9,4.3-12.4,7.9-19.3,10.6
			v14.7c0,1.5,0.6,2,3.3,2h7.1c2.9,0,5.3,0,6.4-0.1c0.8,0.1,1.5-0.3,1.8-1c0.7-1.3,1.8-5.5,2.9-10.2h0.8L426.3,57.1z"/>
		<path class="st0" d="M494.7,17.2c0,0,4.8,3.6,7.7,6.2c-0.2,0.8-0.9,1.1-2,1.1h-48V27c0,12-1.1,27.9-14.7,38l-0.8-0.7
			c8-11.1,8.9-24.9,8.9-37.5V7.1l8.3,2.7L454,9.9c12.8-2.2,26.9-6.1,34.7-9.2l7.1,6.7c-0.8,0.7-2.2,0.7-4.3-0.1
			c-12.9,2.4-25.9,3.9-39,4.6v10.6h38L494.7,17.2z M490.6,32.9l6.4,4.9c-0.7,0.7-1.6,1.2-2.7,1.3v24.6c0,0.3-2.3,1.6-5.5,1.6h-1.1
			v-5.6h-24.2v4.5c0,0.5-2,1.7-5.3,1.7h-1.1V33.7l7.1,2.8h23.2L490.6,32.9z M487.7,57.6v-19h-24.2v19H487.7z"/>
		<path class="st0" d="M509.1,72.7c5.5-2.9,7.4-7.1,7.8-10.3c-3-1-7.2-2.5-7.2-6.7c0-2.8,2.3-5.1,5.1-5.1c0.1,0,0.2,0,0.2,0
			c3.5,0,6,2.8,6,7.2c0.1,7.3-4.2,14-10.8,16.9L509.1,72.7z"/>
		<path class="st0" d="M100.7,156.1c1.9,3.9,2.2,5.9,1.1,6.6c-2.9,2.2-7.5-1-9.7-4.1c-2.1-2.9-3.9-6.1-5.3-9.5
			c-5.2,6.1-11.7,10.9-19,14l-0.6-1.1c7.3-4.4,13.4-10.6,17.7-17.9c-2.7-8.5-4.1-18.5-4.6-29.2h-15v10.9h6.2l3.1-3.1l6,4.8
			c-0.7,0.7-1.6,1.1-2.6,1.2c-0.3,13.3-0.8,19.5-3.3,21.8c-1.5,1.2-3.5,1.9-5.5,1.8c0.1-1.2-0.3-2.4-1-3.4c-1.3-1-2.7-1.7-4.3-2v-1
			c1.8,0.1,4.7,0.4,5.5,0.4c0.5,0.1,0.9-0.1,1.2-0.5c1.1-1.3,1.4-6.7,1.6-17.8h-7v0.8c0,11.5-1.5,25.8-16.5,34.9l-0.8-0.8
			c7.1-7.1,9.8-15.4,10.7-24c-3.8,2.8-9.5,6.8-17.2,11.7c-0.2,0.9-0.7,1.6-1.5,2l-3.8-7.9c1.8-0.4,4.6-1.3,8.2-2.4v-21.5h-6.9
			l-0.6-2h7.4v-18.6l8.9,0.9c-0.1,1-0.7,1.7-2.6,1.9v15.8h0.6l3.2-5c0,0,2.7,2.7,4.8,5v-8.4l7.2,2.7h13.9c-0.2-4.3-0.3-8.8-0.3-13.4
			l9,1c0,0.4-0.2,0.8-0.5,1.1c10.2,0.6,10.9,6,8.4,7.9c1.4,1.1,3.6,2.9,5.3,4.3c-0.2,0.8-0.9,1.1-1.9,1.1H86.5
			c0.2,7.1,1,14.2,2.5,21.1c2-4.9,3.5-10,4.7-15.1l8.3,2.7c-0.3,0.8-1,1.3-2.8,1.2c-1.8,6.5-4.5,12.7-8,18.5
			c1.2,3.4,2.9,6.5,5.2,9.3c0.8,1.2,1.2,1.2,1.8-0.1c1.3-2.5,2.3-5.2,3.2-7.9l0.8,0.1L100.7,156.1z M50.6,140.1
			c2.7-0.8,5.4-1.8,8.2-2.7c0.3-2.9,0.3-5.8,0.3-8.7v-8.3c-0.3,0.1-0.7,0.1-1,0.1h-7.5L50.6,140.1z M94.3,110
			c-0.5-0.1-1.1-0.3-1.5-0.6c-0.7-2.6-3.2-5.7-5.1-7.3c-0.4,0.1-0.8,0.2-1.2,0.3c-0.1,3.5-0.1,7,0,10.5h5.5L94.3,110z"/>
		<path class="st0" d="M167,104.8c0,0,4.8,3.7,7.8,6.4c-0.2,0.8-0.9,1.1-2,1.1h-27.3v9.4h12.6l3.2-3.6l7.2,5.5
			c-0.8,0.7-1.8,1.2-2.9,1.4v21.4c0,4.6-1.1,7.4-9,8c-0.2-2-0.6-3.6-1.4-4.6s-2.5-1.8-5.7-2.3v-1c0,0,6.2,0.4,7.8,0.4
			c1.2,0,1.5-0.4,1.5-1.3v-21.9h-13.3v38c0,0.6-2.2,2-5.7,2h-1.3v-40h-13.3v28.1c0,0.7-2.9,2.2-5.6,2.2h-1v-35.3l7.1,3h12.8v-9.4
			h-28.3l-0.6-2h52.9L167,104.8z M134.9,98.5c18.1,1.5,12.9,14.8,6,10.6c-0.9-3.6-3.9-7.7-6.5-10.1L134.9,98.5z"/>
		<path class="st0" d="M247.6,111.7c-0.5,0.6-1.3,0.8-2.7,0.8c-2.5,2.8-5.3,5.4-8.3,7.7c10.4,6,8.1,13.9,2.2,11.8
			c-3.9-5.6-12.8-12.5-19.5-16.1l0.6-0.8c6.6,0.9,11.8,2.4,15.4,4.3c0.8-2.4,1.5-5.7,2.1-8.3h-45.1c0.6,5.2-1.3,8.7-3.6,10.2
			c-2.2,1.4-5,1.1-6-1.2s0.6-3.9,2.4-4.8c2.7-1.6,5-5.8,4.5-10.4l1-0.1c0.6,1.4,1,2.9,1.4,4.3h44.9l4-4L247.6,111.7z M239.1,152.6
			c0,0,4.5,3.6,7.3,6.2c-0.2,0.8-1,1.1-2,1.1h-60.8l-0.6-2h28.5v-21.2h-20.9l-0.6-2h39.8l3.8-5c0,0,4.3,3.5,6.9,5.9
			c-0.2,0.8-0.9,1.1-1.9,1.1h-20.3v21.2h16.9L239.1,152.6z M213.4,118.3c-0.4,0.8-1.3,1.3-3.4,1.2c-7.3,6.2-15.6,11-24.6,14.1
			l-0.6-0.8c7.5-4.8,16.4-14,19.7-19.2L213.4,118.3z M209.2,98.1c17.4,1.1,10.9,14.9,4,9.8c-0.3-3.6-1.9-6.9-4.6-9.4L209.2,98.1z"/>
		<path class="st0" d="M273.6,110.6c-4.8,9.1-10.9,16.5-17.8,21.8l-0.8-0.6c6-7.9,12-20.6,15.3-33.4l9.7,3.2
			c-0.4,0.8-1.2,1.5-2.8,1.4c-0.8,1.9-1.7,3.8-2.6,5.6h31.9l4.1-5c0,0,4.5,3.3,7.6,6c-0.2,0.8-0.9,1.1-2,1.1L273.6,110.6z
			 M319.2,156.7c1.9,2,2.3,3.4,1.8,4.6c-1.2,2.5-4.5,2.5-8.1,1.2c-12.3-4-13.9-17.3-14.2-33.4h-34.7l-0.6-2h34.5l3.5-3.7l6.9,5.4
			c-0.8,0.7-1.8,1-2.8,1.1c-0.3,10.7,1,23.1,9.5,25.4c1.1,0.4,1.5,0.1,1.8-0.6c0.8-2.1,1.5-4.3,2-6.4l0.8,0.1L319.2,156.7z
			 M302,117.6l3.9-4.8c0,0,4.5,3.3,7.1,5.7c-0.3,0.8-1,1.2-1.8,1.1H271l-0.6-2L302,117.6z"/>
		<path class="st0" d="M353.1,110.6l6.3,5.7c-0.4,0.7-1.1,1-2.7,1.2c-1,10.1-2.7,19.6-7.1,27.7c13.6,8.4,7.9,15.6,2.8,12.6
			c-1.9-2.7-4-5.1-6.4-7.3c-4.1,5.3-10,9.7-18.2,13l-0.6-0.9c6.4-3.6,11.8-8.9,15.4-15.3c-4.1-3.3-8.4-6.4-13-9
			c1.8-5.1,4.2-13.8,6.2-22h-7.6l-0.6-2h8.7c1.5-6.3,2.7-12,3.2-15.8l9,1.4c-0.2,0.8-0.7,1.6-2.7,1.8c-0.7,3.2-1.8,7.6-2.9,12.5h6.9
			L353.1,110.6z M342.1,116.4c-2,7.6-4.4,16-6.6,22.4c3.2,1.1,6.4,2.4,9.5,3.9c3.2-7.8,4.6-16.7,5.3-26.3H342.1z M391.5,111.6
			c-0.8,0.8-1.9,1.4-3.1,1.5V157c-0.1,0.6-3.2,2.4-5.7,2.4h-1v-7.8h-13v7.3c0,0.8-2.5,2.4-5.3,2.4h-1.1v-54.5l6.7,3.1h12l3.4-3.9
			L391.5,111.6z M381.7,149.6v-37.7h-13v37.7H381.7z"/>
		<path class="st0" d="M424,101.6c-0.5,1-1.6,1.6-2.7,1.4c-2,5.2-4.4,10.3-7.2,15.1l3.5,1.3c-0.2,0.7-0.8,1.1-2.1,1.3v40.9
			c-0.1,0.6-2.8,2-5.5,2h-1.2v-37.8c-2.5,3.3-5.4,6.4-8.6,9.1l-0.9-0.6c5.9-8.6,12-22.2,15.1-35.7L424,101.6z M458.8,101.6
			c0,0,4.8,3.8,7.6,6.5c-0.2,0.8-0.9,1.1-2,1.1h-5.3v45.7c0,4.8-1.3,8.2-10.1,8.8c0-1.8-0.7-3.5-1.9-4.8c-1.3-1.1-3.3-1.8-7.3-2.4
			v-1c0,0,8.8,0.6,10.6,0.6c1.4,0,1.8-0.5,1.8-1.5v-45.4h-30.7l-0.6-2h33.5L458.8,101.6z M444.6,145.1c-0.1,0.3-3.1,1.6-5.2,1.6h-1
			v-4.9h-9.2v4.2c0,0.6-2.6,2-5.2,2h-1v-31.1l6.4,2.7h8.2l3.2-3.6l6.9,5.3c-0.9,0.8-2,1.3-3.2,1.5L444.6,145.1z M438.4,139.8v-18.1
			h-9.2v18.1H438.4z"/>
		<path class="st0" d="M482.1,113.7c-0.6,2.7-2,4.1-4.2,4.1c-1.4,0-2.8-0.7-3.5-2c1-7.8,6.9-11.8,14.5-11.8c8.8,0,14,4.4,14,11.6
			c0,5.5-2.1,9-8.8,14c-4.3,3.4-6.2,4.8-6.2,7.7v3.6h-2.7c-0.6-2.1-0.9-4.2-1-6.4c0-2.9,1.4-4.8,5.8-8.8c3.9-3.6,5.3-6.6,5.3-10.5
			c0-5.2-3.4-8.5-8.8-8.5c-1,0-2,0.1-2.9,0.3L482.1,113.7z M492.3,153.1c0,2.9-2.4,5.3-5.3,5.3s-5.3-2.4-5.3-5.3l0,0
			c0-2.9,2.4-5.3,5.3-5.3S492.3,150.1,492.3,153.1z"/>
	</g>
</g>
</svg>
