<svg xmlns="http://www.w3.org/2000/svg" viewBox="0 0 55.83 25.92"><defs><style>.cls-1{fill:#fff;}</style></defs><title>yasai</title><g id="图层_2" data-name="图层 2"><g id="图层_1-2" data-name="图层 1"><path class="cls-1" d="M4.21,16.13,0,.36H3.06L5.69,12.42,8.14.36H11L7.09,16.2v9.36H4.21Z"/><path class="cls-1" d="M20.2,19.19H15.34l-1,6.37h-3L16,.36h3.68l4.57,25.2h-3Zm-4.43-2.67h4l-2-13.1Z"/><path class="cls-1" d="M32.83,7.52a9.29,9.29,0,0,0-.54-3.76,1.71,1.71,0,0,0-1.58-1.1,2.61,2.61,0,0,0-.6.08,1.44,1.44,0,0,0-.59.3,1.7,1.7,0,0,0-.47.72,3.92,3.92,0,0,0-.18,1.32,5.23,5.23,0,0,0,.52,2.19,16.53,16.53,0,0,0,1.32,2.29c.53.78,1.09,1.58,1.69,2.41s1.16,1.68,1.69,2.56a16.14,16.14,0,0,1,1.32,2.71,8.52,8.52,0,0,1,.52,2.92,7.28,7.28,0,0,1-.43,2.61,5.24,5.24,0,0,1-1.14,1.8,4.35,4.35,0,0,1-1.62,1,5.86,5.86,0,0,1-1.92.32,5.51,5.51,0,0,1-2.06-.38,3.92,3.92,0,0,1-1.63-1.26A6.37,6.37,0,0,1,26,21.94a13.77,13.77,0,0,1-.4-3.62h2.95a13.81,13.81,0,0,0,.18,2.47,5.5,5.5,0,0,0,.49,1.53,1.75,1.75,0,0,0,.72.79,1.82,1.82,0,0,0,.88.22,3,3,0,0,0,.76-.11,1.69,1.69,0,0,0,.72-.43,2.75,2.75,0,0,0,.54-.9,4.42,4.42,0,0,0,.21-1.48A6.09,6.09,0,0,0,32.56,18a16.16,16.16,0,0,0-1.33-2.47c-.54-.82-1.12-1.66-1.73-2.52s-1.19-1.71-1.73-2.57a15.64,15.64,0,0,1-1.33-2.65A7.5,7.5,0,0,1,25.92,5a5.73,5.73,0,0,1,.5-2.57A4.2,4.2,0,0,1,27.67.94,4.3,4.3,0,0,1,29.23.2,6.58,6.58,0,0,1,30.71,0a5.84,5.84,0,0,1,1.76.29,3.48,3.48,0,0,1,1.6,1.1,6.23,6.23,0,0,1,1.16,2.28,13.58,13.58,0,0,1,.45,3.85Z"/><path class="cls-1" d="M46.37,19.19H41.51l-1,6.37h-3L42.16.36h3.67l4.57,25.2h-3Zm-4.43-2.67h4L44,3.42Z"/><path class="cls-1" d="M52.92.36h2.91v25.2H52.92Z"/></g></g></svg>